<?xml version="1.0" encoding="UTF-8" standalone="no"?>
<svg
   xmlns:dc="http://purl.org/dc/elements/1.1/"
   xmlns:cc="http://creativecommons.org/ns#"
   xmlns:rdf="http://www.w3.org/1999/02/22-rdf-syntax-ns#"
   xmlns:svg="http://www.w3.org/2000/svg"
   xmlns="http://www.w3.org/2000/svg"
   viewBox="0 0 437.37332 435.14667"
   height="435.14667"
   width="437.37332"
   xml:space="preserve"
   id="svg2"
   version="1.1"><metadata
     id="metadata8"><rdf:RDF><cc:Work
         rdf:about=""><dc:format>image/svg+xml</dc:format><dc:type
           rdf:resource="http://purl.org/dc/dcmitype/StillImage" /></cc:Work></rdf:RDF></metadata><defs
     id="defs6" /><g
     transform="matrix(1.3333333,0,0,-1.3333333,0,435.14667)"
     id="g10"><g
       transform="scale(0.1)"
       id="g12"><path
         id="path14"
         style="fill:#41b93c;fill-opacity:1;fill-rule:nonzero;stroke:none"
         d="m 0,1827.94 c 3.78516,40.41 6.82031,80.92 11.4727,121.23 35.6406,308.75 150.0863,584.54 347.1173,825.35 115.633,141.31 253.074,257.25 410.996,348.9 3.059,1.78 6.195,3.42 10.219,3.79 -30.641,-26.11 -62.035,-51.39 -91.813,-78.45 C 398.672,2785.79 208.977,2465.53 146.41,2077.65 76.3086,1643.04 181.578,1250.9 457.785,908 655.383,662.699 908.16,497.77 1215.28,423.359 c 340.93,-82.589 661.83,-31.398 959.17,157.84 124.18,79.031 236.37,171.59 329.32,286.41 113.58,140.291 187.34,300.041 223.8,475.861 23.85,115.08 39.22,231.92 57.8,344.42 2.05,-12.11 5.55,-28.97 7.67,-46 42.93,-343.73 -45.72,-651.558 -262.4,-919.648 C 2310.93,450.41 2022.09,293.422 1676.9,248.879 1240.51,192.582 856.715,320.832 527.539,608.41 246.664,853.801 81.5508,1166.08 20.6367,1533.4 11.582,1588.01 9.11328,1643.7 3.49219,1698.88 2.62891,1707.38 1.17969,1715.83 0,1724.3 c 0,34.55 0,69.09 0,103.64" /><path
         id="path16"
         style="fill:#62a5df;fill-opacity:1;fill-rule:nonzero;stroke:none"
         d="m 3280.32,1694.69 c -5.86,30.06 -11.83,60.11 -17.57,90.2 -56.79,297.48 -179.42,564.25 -376.4,794.86 -226.75,265.45 -509.73,440.09 -854.24,504.39 -436.14,81.42 -833.52,-13.09 -1183.848,-286.61 C 643.191,2637.42 500.809,2430.64 423.895,2180.8 379.09,2035.26 366.754,1886.15 376.488,1734.52 c 8.504,-132.51 31.981,-261.64 78.641,-386.27 55.574,-148.46 141.516,-277.2 251.691,-390.449 93.731,-96.352 200.227,-177.27 308.28,-256.36 6.26,-4.589 12.42,-9.32 18.63,-13.98 -0.72,-1.352 -1.43,-2.699 -2.14,-4.059 -32.77,13.618 -66.199,25.868 -98.211,41.09 -284.496,135.297 -484.797,350.858 -605.484,640.688 -84.778,203.59 -110.946,416.12 -85.965,634.54 43.136,377.15 218.004,683.13 509.117,923.14 226.211,186.51 487.993,292.14 778.183,328.56 56.78,7.13 114.05,11.5 171.28,12.13 57.97,0.65 115.99,-2.42 173.57,-9.2 51.73,-6.09 103.23,-12.89 154.38,-23.31 54.91,-11.2 109.19,-25.54 162.42,-43.08 3.48,-1.15 6.95,-2.31 10.42,-3.48 376.71,-127.39 666.99,-362.45 869.23,-704.91 109.3,-185.07 175.06,-385.21 198.48,-599.03 4.21,-38.46 7.56,-77.01 11.31,-115.53 0,-23.44 0,-46.88 0,-70.32" /><path
         id="path18"
         style="fill:#62a5df;fill-opacity:1;fill-rule:nonzero;stroke:none"
         d="m 859.281,208.969 c 69.028,-22 137.414,-46.328 207.209,-65.539 180.37,-49.6683 364.21,-68.1605 551.16,-56.5316 236.88,14.7306 461.11,74.9806 667.72,192.2036 356.13,202.046 591.61,501.269 701.63,895.838 83.78,300.42 71.58,598.27 -45.56,888.71 -105.36,261.23 -280.51,463.17 -526.43,602.37 -142.22,80.51 -291.96,140.55 -454.08,167.03 -151.94,24.83 -302.21,15.79 -451.36,-20.81 -133.59,-32.78 -259.6,-85.98 -385.03,-140.91 -7.86,-3.44 -15.75,-6.79 -25.78,-7.38 20.14,16.05 39.75,32.8 60.49,48.02 233.94,171.7 497.06,247.19 785.53,231.67 262.42,-14.11 497.83,-105.45 706.46,-264.23 284.69,-216.66 456.79,-504.69 521.88,-854.25 70.38,-378.04 3.53,-735.24 -195.84,-1063.308 C 2732.53,359.141 2373.48,115.27 1911.12,27.2695 1609.41,-30.1602 1315.51,3.74219 1032.31,123.039 c -59.361,25 -116.232,55.93 -174.255,84.121 0.41,0.602 0.82,1.211 1.226,1.809" /><path
         id="path20"
         style="fill:#41b93c;fill-opacity:1;fill-rule:nonzero;stroke:none"
         d="m 1524.84,2101.48 c -22.17,5.56 -43.91,4.21 -64.6,-3.95 -21.01,-8.3 -37.67,-22.44 -49.89,-42.64 l -285.63,-496.47 -285.654,496.53 c -5.738,9.92 -12.961,18.6 -21.492,25.81 -8.398,7.08 -17.844,12.66 -28.121,16.62 -9.855,3.79 -20.207,6.09 -30.808,6.85 -10.676,0.78 -21.485,-0.13 -33.29,-2.97 -22.152,-6.17 -40.332,-18.49 -54.015,-36.59 -13.699,-18.07 -20.645,-38.95 -20.645,-62.03 v -733.76 h 202.809 v 362.7 l 184.426,-323.02 c 9.01,-16.47 21.68,-29.21 37.65,-37.87 15.19,-8.24 31.73,-12.42 49.14,-12.42 17.62,0 34.37,4.11 49.82,12.21 16.49,8.65 29.48,21.46 38.34,37.63 l 183.6,323 v -362.23 h 203.87 v 733.76 c 0,23.18 -7.09,44.14 -21.07,62.26 -13.84,17.93 -31.8,30.14 -54.44,36.58" /><path
         id="path22"
         style="fill:#41b93c;fill-opacity:1;fill-rule:nonzero;stroke:none"
         d="m 2426.82,2093.97 v -310.61 h -418.95 v 310.61 h -202.81 v -825.09 h 202.81 v 310.61 h 418.95 v -310.61 h 202.8 v 825.09 h -202.8" /></g></g></svg>