<?xml version="1.0" encoding="UTF-8" standalone="no"?>
<!-- Created with Inkscape (http://www.inkscape.org/) -->

<svg
   version="1.1"
   id="svg2"
   width="1064.48"
   height="568.1333"
   viewBox="0 0 1064.48 568.1333"
   sodipodi:docname="eps file.eps"
   xmlns:inkscape="http://www.inkscape.org/namespaces/inkscape"
   xmlns:sodipodi="http://sodipodi.sourceforge.net/DTD/sodipodi-0.dtd"
   xmlns="http://www.w3.org/2000/svg"
   xmlns:svg="http://www.w3.org/2000/svg">
  <defs
     id="defs6" />
  <sodipodi:namedview
     id="namedview4"
     pagecolor="#ffffff"
     bordercolor="#000000"
     borderopacity="0.25"
     inkscape:showpageshadow="2"
     inkscape:pageopacity="0.0"
     inkscape:pagecheckerboard="0"
     inkscape:deskcolor="#d1d1d1" />
  <g
     id="g8"
     inkscape:groupmode="layer"
     inkscape:label="ink_ext_XXXXXX"
     transform="matrix(1.3333333,0,0,-1.3333333,0,568.13333)">
    <g
       id="g10"
       transform="scale(0.1)">
      <path
         d="m 724.367,1339.21 c 0.016,-0.06 0.039,-0.11 0.039,-0.16 V 500.512 c 0,-1.641 -1.316,-2.961 -2.945,-2.961 H 565.043 c -1.633,0 -2.949,1.32 -2.949,2.961 V 942.539 L 444.535,655.801 c -0.051,-0.102 -0.144,-0.141 -0.207,-0.242 -0.043,-0.098 -0.031,-0.2 -0.094,-0.289 -0.129,-0.2 -0.336,-0.29 -0.492,-0.45 -0.164,-0.14 -0.269,-0.3 -0.461,-0.41 -0.426,-0.25 -0.894,-0.41 -1.398,-0.422 -0.028,0 -0.051,-0.027 -0.086,-0.027 H 285.363 c -0.023,0 -0.05,0.027 -0.086,0.027 -0.507,0.012 -0.976,0.172 -1.398,0.422 -0.184,0.11 -0.301,0.27 -0.445,0.41 -0.168,0.16 -0.375,0.25 -0.5,0.45 -0.055,0.089 -0.055,0.191 -0.106,0.289 -0.062,0.101 -0.156,0.14 -0.191,0.242 L 165.078,942.539 V 500.512 c 0,-1.641 -1.324,-2.961 -2.953,-2.961 H 5.69922 c -1.61719,0 -2.94141,1.32 -2.94141,2.961 v 838.528 c 0,0.05 0.01953,0.11 0.03125,0.17 0,0.15 0.05078,0.27 0.08985,0.42 0.0625,0.31 0.15625,0.58 0.3125,0.86 0.03515,0.06 0.02343,0.13 0.07422,0.2 0.03515,0.07 0.10546,0.1 0.15625,0.16 0.1914,0.25 0.4375,0.44 0.69921,0.62 0.10547,0.08 0.19141,0.15 0.29688,0.2 0.40234,0.2 0.82422,0.33 1.28125,0.33 H 162.125 c 0.543,0 1.023,-0.19 1.461,-0.44 0.105,-0.06 0.191,-0.12 0.285,-0.2 0.426,-0.31 0.762,-0.7 0.969,-1.18 0,-0.02 0.012,-0.02 0.012,-0.02 L 363.574,855.441 562.301,1340.16 c 0,0.02 0,0.02 0,0.02 0.207,0.48 0.554,0.87 0.961,1.18 0.097,0.08 0.191,0.14 0.304,0.2 0.43,0.26 0.918,0.44 1.461,0.44 h 156.418 c 0.469,0 0.895,-0.11 1.282,-0.31 0.105,-0.07 0.207,-0.14 0.3,-0.22 0.27,-0.17 0.512,-0.37 0.7,-0.62 0.046,-0.06 0.125,-0.09 0.171,-0.15 0.032,-0.06 0.032,-0.15 0.071,-0.21 0.144,-0.27 0.242,-0.55 0.312,-0.86 0.024,-0.14 0.074,-0.27 0.086,-0.42"
         style="fill:#62a5df;fill-opacity:1;fill-rule:nonzero;stroke:none"
         id="path12" />
      <path
         d="m 1199.84,816.289 h 186.06 l -93.03,278.941 z m 453.7,-314.848 c 0.29,-0.902 0.14,-1.89 -0.41,-2.671 -0.56,-0.758 -1.45,-1.219 -2.39,-1.219 h -156.42 c -1.27,0 -2.39,0.82 -2.8,2.019 l -51.49,154.399 H 1145.7 L 1094.21,499.57 c -0.4,-1.199 -1.51,-2.019 -2.79,-2.019 H 935.004 c -0.949,0 -1.848,0.461 -2.399,1.219 -0.554,0.781 -0.703,1.769 -0.398,2.671 l 279.653,838.549 c 0.04,0.1 0.14,0.14 0.19,0.23 0.07,0.19 0.1,0.39 0.21,0.55 0.14,0.18 0.33,0.28 0.48,0.43 0.13,0.1 0.22,0.21 0.37,0.3 0.46,0.3 0.99,0.5 1.55,0.5 h 156.41 c 0.57,0 1.09,-0.2 1.56,-0.5 0.14,-0.09 0.24,-0.2 0.37,-0.3 0.15,-0.15 0.35,-0.25 0.48,-0.43 0.11,-0.16 0.13,-0.36 0.22,-0.55 0.03,-0.08 0.14,-0.13 0.18,-0.23 l 279.66,-838.549"
         style="fill:#62a5df;fill-opacity:1;fill-rule:nonzero;stroke:none"
         id="path14" />
      <path
         d="m 2579.22,849.828 c -0.09,-0.449 -0.17,-0.918 -0.26,-1.367 h 0.26 z m 5.89,152.102 V 500.52 c 0,-1.641 -1.33,-2.961 -2.96,-2.961 h -156.41 c -1.63,0 -2.94,1.32 -2.94,2.961 v 86.601 c -62.57,-49.082 -137.02,-79.23 -216.29,-87.301 -0.19,-0.019 -0.37,-0.058 -0.56,-0.07 -6.11,-0.621 -12.26,-1.051 -18.41,-1.418 -1.05,-0.062 -2.09,-0.172 -3.14,-0.23 -7.14,-0.352 -14.32,-0.543 -21.51,-0.543 -7.2,0 -14.37,0.191 -21.5,0.543 -1.07,0.058 -2.11,0.168 -3.16,0.23 -6.15,0.367 -12.29,0.797 -18.39,1.418 -0.2,0.02 -0.4,0.059 -0.6,0.07 -96.28,9.828 -185.54,52.039 -254.9,121.399 -69.37,69.383 -111.59,158.64 -121.42,254.941 -0.02,0.18 -0.06,0.371 -0.07,0.57 -0.62,6.129 -1.06,12.309 -1.41,18.5 -0.06,1.02 -0.17,2.032 -0.23,3.04 -0.35,7.14 -0.54,14.308 -0.54,21.519 0,7.191 0.19,14.371 0.54,21.5 0.06,1.02 0.17,2.043 0.23,3.051 0.35,6.191 0.79,12.359 1.41,18.5 0.01,0.191 0.05,0.39 0.07,0.57 9.83,96.29 52.05,185.56 121.42,254.92 69.36,69.37 158.62,111.59 254.9,121.42 0.2,0.01 0.4,0.05 0.6,0.06 6.1,0.63 12.24,1.05 18.39,1.4 1.05,0.06 2.09,0.19 3.16,0.25 7.13,0.35 14.3,0.54 21.5,0.54 112.78,0 218.81,-43.92 298.56,-123.67 0.55,-0.55 0.86,-1.29 0.86,-2.08 0,-0.79 -0.31,-1.54 -0.86,-2.09 l -110.6,-110.6 c -1.16,-1.15 -3.03,-1.15 -4.18,0 -49.08,49.08 -114.35,76.12 -183.78,76.12 -4.44,0 -8.86,-0.11 -13.25,-0.32 -0.62,-0.04 -1.22,-0.12 -1.84,-0.15 -3.82,-0.22 -7.64,-0.48 -11.41,-0.87 -0.13,-0.01 -0.25,-0.03 -0.39,-0.03 -121.88,-12.6 -219.04,-109.76 -231.62,-231.638 -0.01,-0.121 -0.04,-0.25 -0.05,-0.383 -0.39,-3.789 -0.65,-7.598 -0.87,-11.418 -0.04,-0.609 -0.11,-1.23 -0.13,-1.84 -0.22,-4.39 -0.34,-8.812 -0.34,-13.242 0,-4.457 0.12,-8.859 0.34,-13.258 0.02,-0.609 0.09,-1.222 0.13,-1.832 0.23,-3.82 0.49,-7.64 0.88,-11.41 0.01,-0.129 0.03,-0.269 0.04,-0.379 12.58,-121.89 109.74,-219.051 231.62,-231.648 0.14,-0.012 0.27,-0.02 0.4,-0.032 3.78,-0.378 7.58,-0.648 11.4,-0.878 0.63,-0.032 1.23,-0.114 1.85,-0.133 4.38,-0.227 8.8,-0.34 13.24,-0.34 4.45,0 8.86,0.113 13.26,0.34 0.61,0.019 1.23,0.101 1.83,0.133 3.83,0.218 7.64,0.488 11.42,0.878 0.13,0.012 0.26,0.02 0.4,0.032 104.54,10.797 190.91,83.816 221.3,181.297 h -186.81 c -1.62,0 -2.94,1.339 -2.94,2.961 v 156.41 c 0,1.64 1.32,2.96 2.94,2.96 h 201.45 c 0.01,0 156.42,0 156.42,0 1.63,0 2.96,-1.32 2.95,-2.96"
         style="fill:#62a5df;fill-opacity:1;fill-rule:nonzero;stroke:none"
         id="path16" />
      <path
         d="M 2955.39,1339.05 V 500.512 c 0,-1.641 -1.33,-2.953 -2.96,-2.953 h -156.42 c -1.62,0 -2.94,1.312 -2.94,2.953 v 838.538 c 0,1.62 1.32,2.95 2.94,2.95 h 156.42 c 1.63,0 2.96,-1.33 2.96,-2.95"
         style="fill:#62a5df;fill-opacity:1;fill-rule:nonzero;stroke:none"
         id="path18" />
      <path
         d="m 3370.45,1103.57 c -101.33,-101.35 -101.33,-266.23 0,-367.57 49.09,-49.078 114.36,-76.121 183.78,-76.121 69.43,0 134.69,27.043 183.79,76.121 1.14,1.148 3.01,1.148 4.16,0 l 110.6,-110.609 c 0.57,-0.539 0.88,-1.289 0.88,-2.082 0,-0.789 -0.31,-1.539 -0.88,-2.09 -79.74,-79.75 -185.77,-123.66 -298.55,-123.66 -112.78,0 -218.81,43.91 -298.55,123.66 -164.63,164.633 -164.63,432.491 0,597.111 79.74,79.75 185.77,123.67 298.55,123.67 112.78,0 218.81,-43.92 298.55,-123.67 0.57,-0.55 0.88,-1.29 0.88,-2.08 0,-0.79 -0.31,-1.54 -0.88,-2.09 l -110.6,-110.6 c -1.15,-1.15 -3.02,-1.15 -4.16,0 -49.1,49.08 -114.36,76.12 -183.79,76.12 -69.42,0 -134.69,-27.03 -183.78,-76.11"
         style="fill:#62a5df;fill-opacity:1;fill-rule:nonzero;stroke:none"
         id="path20" />
      <path
         d="M 5206.77,1339.05 V 500.512 c 0,-1.641 -1.33,-2.953 -2.96,-2.953 H 5047.4 c -1.62,0 -2.96,1.312 -2.96,2.953 v 338.097 h -397 V 500.512 c 0,-1.641 -1.32,-2.953 -2.96,-2.953 h -156.42 c -1.61,0 -2.93,1.312 -2.93,2.953 v 838.538 c 0,1.62 1.32,2.95 2.93,2.95 h 156.42 c 1.64,0 2.96,-1.33 2.96,-2.95 v -338.11 h 397 v 338.11 c 0,1.62 1.34,2.95 2.96,2.95 h 156.41 c 1.63,0 2.96,-1.33 2.96,-2.95"
         style="fill:#62a5df;fill-opacity:1;fill-rule:nonzero;stroke:none"
         id="path22" />
      <path
         d="m 5682.2,816.289 h 186.07 l -93.03,278.941 z m 453.71,-314.848 c 0.29,-0.902 0.15,-1.89 -0.41,-2.671 -0.55,-0.758 -1.45,-1.219 -2.39,-1.219 h -156.42 c -1.26,0 -2.39,0.82 -2.8,2.019 L 5922.4,653.969 H 5628.07 L 5576.58,499.57 c -0.4,-1.199 -1.51,-2.019 -2.8,-2.019 h -156.41 c -0.95,0 -1.85,0.461 -2.4,1.219 -0.55,0.781 -0.7,1.769 -0.4,2.671 l 279.67,838.549 c 0.04,0.1 0.14,0.14 0.17,0.23 0.08,0.19 0.1,0.39 0.23,0.55 0.12,0.18 0.32,0.28 0.48,0.43 0.12,0.1 0.22,0.21 0.37,0.3 0.45,0.3 0.98,0.5 1.53,0.5 h 156.43 c 0.56,0 1.08,-0.2 1.56,-0.5 0.12,-0.09 0.22,-0.2 0.36,-0.3 0.15,-0.15 0.35,-0.25 0.47,-0.43 0.12,-0.16 0.14,-0.36 0.23,-0.55 0.04,-0.08 0.14,-0.13 0.17,-0.23 l 279.67,-838.549"
         style="fill:#62a5df;fill-opacity:1;fill-rule:nonzero;stroke:none"
         id="path24" />
      <path
         d="M 7065.36,1339.05 V 500.52 c 0,-0.469 -0.13,-0.911 -0.33,-1.301 -0.01,-0.039 -0.01,-0.071 -0.02,-0.098 -0.04,-0.062 -0.12,-0.101 -0.15,-0.172 -0.22,-0.32 -0.47,-0.578 -0.77,-0.801 -0.11,-0.089 -0.2,-0.148 -0.31,-0.207 -0.41,-0.23 -0.87,-0.382 -1.37,-0.382 H 6906 c -0.47,0 -0.9,0.132 -1.29,0.312 -0.11,0.07 -0.2,0.149 -0.31,0.219 -0.26,0.172 -0.49,0.371 -0.69,0.629 -0.05,0.051 -0.14,0.082 -0.17,0.152 l -397.5,595.939 V 500.512 c 0,-1.641 -1.34,-2.961 -2.96,-2.961 h -156.42 c -1.63,0 -2.95,1.32 -2.95,2.961 v 838.528 c 0,0.47 0.14,0.9 0.32,1.3 0.02,0.03 0,0.07 0.03,0.1 0.04,0.06 0.12,0.1 0.16,0.17 0.2,0.31 0.45,0.59 0.77,0.8 0.09,0.09 0.19,0.16 0.32,0.21 0.41,0.23 0.85,0.38 1.35,0.38 h 156.42 c 0.47,0 0.89,-0.13 1.27,-0.33 0.13,-0.05 0.22,-0.12 0.32,-0.2 0.27,-0.18 0.49,-0.38 0.69,-0.62 0.05,-0.06 0.13,-0.1 0.18,-0.16 l 397.5,-595.952 v 594.312 c 0,1.62 1.31,2.95 2.94,2.95 h 156.43 c 1.62,0 2.93,-1.33 2.95,-2.95"
         style="fill:#62a5df;fill-opacity:1;fill-rule:nonzero;stroke:none"
         id="path26" />
      <path
         d="m 7435.32,659.871 h 126.02 c 143.31,0 259.9,116.59 259.9,259.91 0,143.299 -116.59,259.899 -259.9,259.899 h -126.02 z m 548.23,259.91 c 0,-232.812 -189.39,-422.222 -422.21,-422.222 h -285.39 c -1.62,0 -2.94,1.312 -2.94,2.953 v 838.538 c 0,1.62 1.32,2.95 2.94,2.95 h 285.39 c 232.82,0 422.21,-189.41 422.21,-422.219"
         style="fill:#62a5df;fill-opacity:1;fill-rule:nonzero;stroke:none"
         id="path28" />
      <path
         d="M 2051.45,44.0703 C 2043.47,30.9102 2031.79,20.2891 2016.4,12.1719 2001.01,4.05859 1982.96,0 1962.26,0 c -29.95,0 -54.43,7.12891 -73.45,21.4102 -19.04,14.2695 -28.54,34 -28.54,59.1796 h 51.2 c 1.12,-12.8789 5.88,-23.0898 14.27,-30.6406 8.4,-7.5586 20.57,-11.3398 36.52,-11.3398 16.5,0 29.44,4.1992 38.82,12.5898 9.37,8.4024 14.06,19.1719 14.06,32.3321 0,10.3476 -2.87,18.5277 -8.6,24.5387 -5.74,6.02 -12.95,10.641 -21.62,13.86 -8.68,3.211 -20.57,6.64 -35.68,10.289 -19.02,4.461 -34.41,9.152 -46.16,14.051 -11.76,4.902 -21.83,12.73 -30.22,23.511 -8.4,10.758 -12.59,25.391 -12.59,43.848 0,16.801 4.19,31.621 12.59,44.5 8.39,12.859 20.14,22.793 35.25,29.793 15.11,6.988 32.46,10.5 52.05,10.5 28.54,0 51.55,-6.723 69.04,-20.152 17.49,-13.43 27.21,-32.879 29.17,-58.34 h -52.88 c -1.12,11.191 -5.88,20.558 -14.27,28.121 -8.4,7.558 -19.59,11.34 -33.58,11.34 -14.55,0 -26.31,-3.653 -35.26,-10.922 -8.96,-7.278 -13.43,-18.039 -13.43,-32.321 0,-10.347 2.87,-18.668 8.61,-24.968 5.73,-6.301 12.94,-11.051 21.61,-14.27 8.67,-3.219 20.7,-6.648 36.1,-10.281 18.74,-4.481 33.99,-9.168 45.75,-14.059 11.75,-4.898 21.75,-12.59 30.01,-23.082 8.25,-10.496 12.38,-24.976 12.38,-43.4489 0,-14.8282 -3.99,-28.8282 -11.96,-41.9688"
         style="fill:#41b93c;fill-opacity:1;fill-rule:nonzero;stroke:none"
         id="path30" />
      <path
         d="m 2350.49,294.641 v -37.352 h -77.65 V 2.94141 h -47.85 V 257.289 h -78.06 v 37.352 h 203.56"
         style="fill:#41b93c;fill-opacity:1;fill-rule:nonzero;stroke:none"
         id="path32" />
      <path
         d="m 2522.16,241.75 c -15.12,-8.668 -26.94,-20.969 -35.47,-36.93 -8.54,-15.949 -12.8,-34.422 -12.8,-55.398 0,-20.981 4.26,-39.531 12.8,-55.6134 8.53,-16.0977 20.35,-28.5391 35.47,-37.3594 15.1,-8.8086 32.31,-13.2187 51.62,-13.2187 19.31,0 36.52,4.4101 51.63,13.2187 15.1,8.8203 26.92,21.2617 35.46,37.3594 8.53,16.0824 12.8,34.6324 12.8,55.6134 0,20.976 -4.27,39.449 -12.8,55.398 -8.54,15.961 -20.36,28.262 -35.46,36.93 -15.11,8.68 -32.32,13.02 -51.63,13.02 -19.31,0 -36.52,-4.34 -51.62,-13.02 z m 126.96,37.57 c 22.8,-12.73 40.78,-30.422 53.93,-53.09 13.15,-22.66 19.73,-48.269 19.73,-76.808 0,-28.543 -6.58,-54.2228 -19.73,-77.0236 C 2689.9,49.5898 2671.92,31.8203 2649.12,19.1016 2626.31,6.37109 2601.2,0 2573.78,0 c -27.15,0 -52.12,6.37109 -74.92,19.1016 -22.81,12.7187 -40.86,30.4882 -54.14,53.2968 -13.3,22.8008 -19.94,48.4806 -19.94,77.0236 0,28.539 6.64,54.148 19.94,76.808 13.28,22.668 31.33,40.36 54.14,53.09 22.8,12.731 47.77,19.102 74.92,19.102 27.42,0 52.53,-6.371 75.34,-19.102"
         style="fill:#41b93c;fill-opacity:1;fill-rule:nonzero;stroke:none"
         id="path34" />
      <path
         d="m 2893.18,241.75 c -15.11,-8.668 -26.93,-20.969 -35.47,-36.93 -8.53,-15.949 -12.8,-34.422 -12.8,-55.398 0,-20.981 4.27,-39.531 12.8,-55.6134 8.54,-16.0977 20.36,-28.5391 35.47,-37.3594 15.11,-8.8086 32.32,-13.2187 51.63,-13.2187 19.3,0 36.51,4.4101 51.62,13.2187 15.11,8.8203 26.93,21.2617 35.47,37.3594 8.53,16.0824 12.8,34.6324 12.8,55.6134 0,20.976 -4.27,39.449 -12.8,55.398 -8.54,15.961 -20.36,28.262 -35.47,36.93 -15.11,8.68 -32.32,13.02 -51.62,13.02 -19.31,0 -36.52,-4.34 -51.63,-13.02 z m 126.96,37.57 c 22.81,-12.73 40.78,-30.422 53.95,-53.09 13.14,-22.66 19.71,-48.269 19.71,-76.808 0,-28.543 -6.57,-54.2228 -19.71,-77.0236 C 3060.92,49.5898 3042.95,31.8203 3020.14,19.1016 2997.34,6.37109 2972.23,0 2944.81,0 c -27.15,0 -52.12,6.37109 -74.93,19.1016 -22.8,12.7187 -40.85,30.4882 -54.14,53.2968 -13.29,22.8008 -19.94,48.4806 -19.94,77.0236 0,28.539 6.65,54.148 19.94,76.808 13.29,22.668 31.34,40.36 54.14,53.09 22.81,12.731 47.78,19.102 74.93,19.102 27.42,0 52.53,-6.371 75.33,-19.102"
         style="fill:#41b93c;fill-opacity:1;fill-rule:nonzero;stroke:none"
         id="path36" />
      <path
         d="M 3490.02,294.641 V 2.94141 h -47.84 V 202.719 L 3353.19,2.94141 h -33.16 L 3230.64,202.719 V 2.94141 h -47.85 V 294.641 h 51.63 l 102.4,-228.7426 101.99,228.7426 h 51.21"
         style="fill:#41b93c;fill-opacity:1;fill-rule:nonzero;stroke:none"
         id="path38" />
      <path
         d="m 3810.67,158.66 h 52.89 c 18.18,0 31.75,4.32 40.72,13 8.94,8.68 13.42,20.711 13.42,36.102 0,15.668 -4.48,27.84 -13.42,36.508 -8.97,8.679 -22.54,13.019 -40.72,13.019 h -52.89 z M 3913.08,2.94141 3840.05,121.289 h -29.38 V 2.94141 h -47.84 V 294.641 h 100.73 c 22.38,0 41.34,-3.852 56.87,-11.539 15.53,-7.704 27.13,-18.122 34.84,-31.27 7.68,-13.152 11.54,-27.844 11.54,-44.07 0,-19.59 -5.95,-37.223 -17.84,-52.883 -11.9,-15.68 -30.15,-25.887 -54.77,-30.637 L 3971.42,2.94141 h -58.34"
         style="fill:#41b93c;fill-opacity:1;fill-rule:nonzero;stroke:none"
         id="path40" />
      <path
         d="m 4117.91,257.699 v -88.551 h 100.73 V 132.219 H 4117.91 V 40.2891 h 113.33 V 2.94141 H 4070.06 V 295.07 h 161.18 v -37.371 h -113.33"
         style="fill:#41b93c;fill-opacity:1;fill-rule:nonzero;stroke:none"
         id="path42" />
      <path
         d="M 4379.8,294.641 V 2.94141 h -47.84 V 294.641 h 47.84"
         style="fill:#41b93c;fill-opacity:1;fill-rule:nonzero;stroke:none"
         id="path44" />
      <path
         d="m 4724.39,2.94141 h -47.85 L 4532.58,220.781 V 2.94141 h -47.85 V 295.07 h 47.85 L 4676.54,77.6406 V 295.07 h 47.85 V 2.94141"
         style="fill:#41b93c;fill-opacity:1;fill-rule:nonzero;stroke:none"
         id="path46" />
      <path
         d="M 4877.16,294.641 V 2.94141 h -47.85 V 294.641 h 47.85"
         style="fill:#41b93c;fill-opacity:1;fill-rule:nonzero;stroke:none"
         id="path48" />
      <path
         d="m 5198.03,275.551 c 24.2,-15.262 41.76,-36.871 52.68,-64.852 h -57.51 c -7.55,14.551 -18.04,25.531 -31.48,32.949 -13.43,7.403 -28.95,11.122 -46.59,11.122 -19.3,0 -36.51,-4.34 -51.62,-13.02 -15.11,-8.668 -26.94,-20.969 -35.47,-36.93 -8.53,-15.949 -12.8,-34.422 -12.8,-55.398 0,-20.981 4.27,-39.531 12.8,-55.6134 8.53,-16.0977 20.36,-28.4766 35.47,-37.1367 15.11,-8.6914 32.32,-13.0235 51.62,-13.0235 26.03,0 47.22,7.3399 63.59,22.0313 16.38,14.6914 26.23,34.6403 29.6,59.8203 h -109.55 v 37.352 h 160.74 V 125.5 C 5256.44,102.832 5248.4,81.9805 5235.38,62.9492 5222.37,43.9297 5205.44,28.75 5184.6,17.4219 5163.75,6.08203 5140.59,0.421875 5115.13,0.421875 c -27.43,0 -52.46,6.359375 -75.12,19.097625 -22.67,12.7305 -40.65,30.4297 -53.94,53.1016 -13.29,22.6602 -19.93,48.2579 -19.93,76.8009 0,28.539 6.64,54.148 19.93,76.808 13.29,22.668 31.33,40.36 54.15,53.09 22.79,12.731 47.77,19.102 74.91,19.102 31.07,0 58.69,-7.633 82.9,-22.871"
         style="fill:#41b93c;fill-opacity:1;fill-rule:nonzero;stroke:none"
         id="path50" />
      <path
         d="M 5396.35,294.641 V 2.94141 H 5348.5 V 294.641 h 47.85"
         style="fill:#41b93c;fill-opacity:1;fill-rule:nonzero;stroke:none"
         id="path52" />
      <path
         d="m 5740.94,2.94141 h -47.85 L 5549.12,220.781 V 2.94141 h -47.84 V 295.07 h 47.84 L 5693.09,77.6406 V 295.07 h 47.85 V 2.94141"
         style="fill:#41b93c;fill-opacity:1;fill-rule:nonzero;stroke:none"
         id="path54" />
      <path
         d="m 6061.81,275.551 c 24.19,-15.262 41.75,-36.871 52.67,-64.852 h -57.51 c -7.54,14.551 -18.04,25.531 -31.48,32.949 -13.43,7.403 -28.95,11.122 -46.58,11.122 -19.3,0 -36.51,-4.34 -51.63,-13.02 -15.1,-8.668 -26.93,-20.969 -35.47,-36.93 -8.53,-15.949 -12.79,-34.422 -12.79,-55.398 0,-20.981 4.26,-39.531 12.79,-55.6134 8.54,-16.0977 20.37,-28.4766 35.47,-37.1367 15.12,-8.6914 32.33,-13.0235 51.63,-13.0235 26.02,0 47.22,7.3399 63.58,22.0313 16.38,14.6914 26.24,34.6403 29.6,59.8203 h -109.55 v 37.352 h 160.75 V 125.5 C 6120.21,102.832 6112.17,81.9805 6099.16,62.9492 6086.14,43.9297 6069.21,28.75 6048.38,17.4219 6027.52,6.08203 6004.36,0.421875 5978.91,0.421875 c -27.43,0 -52.46,6.359375 -75.12,19.097625 -22.68,12.7305 -40.65,30.4297 -53.94,53.1016 -13.3,22.6602 -19.94,48.2579 -19.94,76.8009 0,28.539 6.64,54.148 19.94,76.808 13.29,22.668 31.33,40.36 54.14,53.09 22.8,12.731 47.77,19.102 74.92,19.102 31.06,0 58.69,-7.633 82.9,-22.871"
         style="fill:#41b93c;fill-opacity:1;fill-rule:nonzero;stroke:none"
         id="path56" />
      <path
         d="M 1799.77,116.949 H 0 v 64.52 h 1799.77 v -64.52"
         style="fill:#41b93c;fill-opacity:1;fill-rule:nonzero;stroke:none"
         id="path58" />
      <path
         d="M 7983.55,116.949 H 6183.78 v 64.52 h 1799.77 v -64.52"
         style="fill:#41b93c;fill-opacity:1;fill-rule:nonzero;stroke:none"
         id="path60" />
      <path
         d="m 2724.04,3151.25 c 2.93,31.24 5.27,62.55 8.87,93.71 27.54,238.65 116,451.82 268.3,637.94 89.37,109.23 195.61,198.84 317.67,269.68 2.36,1.37 4.79,2.64 7.9,2.93 -23.69,-20.18 -47.95,-39.72 -70.97,-60.64 -223.62,-203.26 -370.24,-450.8 -418.6,-750.6 -54.19,-335.93 27.18,-639.03 240.67,-904.06 152.73,-189.61 348.11,-317.09 585.49,-374.6 263.52,-63.84 511.55,-24.27 741.38,122 95.98,61.08 182.7,132.63 254.54,221.38 87.79,108.43 144.81,231.91 172.98,367.8 18.44,88.95 30.32,179.26 44.68,266.22 1.58,-9.36 4.29,-22.39 5.93,-35.55 33.18,-265.69 -35.34,-503.62 -202.82,-710.84 -169.82,-210.11 -393.07,-331.45 -659.89,-365.87 -337.3,-43.52 -633.95,55.61 -888.38,277.89 -217.09,189.67 -344.72,431.04 -391.8,714.96 -7,42.2 -8.91,85.25 -13.25,127.9 -0.67,6.57 -1.79,13.1 -2.7,19.65 0,26.7 0,53.4 0,80.1"
         style="fill:#41b93c;fill-opacity:1;fill-rule:nonzero;stroke:none"
         id="path62" />
      <path
         d="m 5259.51,3048.26 c -4.53,23.24 -9.14,46.46 -13.58,69.72 -43.89,229.94 -138.68,436.14 -290.93,614.38 -175.26,205.17 -393.99,340.16 -660.27,389.86 -337.11,62.93 -644.26,-10.12 -915.04,-221.53 -158.51,-123.76 -268.56,-283.59 -328.01,-476.69 -34.63,-112.5 -44.16,-227.75 -36.64,-344.95 6.57,-102.42 24.72,-202.23 60.78,-298.56 42.96,-114.76 109.39,-214.26 194.55,-301.8 72.44,-74.47 154.76,-137.02 238.28,-198.15 4.84,-3.54 9.6,-7.19 14.39,-10.8 -0.55,-1.04 -1.1,-2.09 -1.65,-3.14 -25.33,10.53 -51.17,19.99 -75.91,31.76 -219.9,104.58 -374.72,271.19 -468,495.21 -65.53,157.37 -85.75,321.64 -66.44,490.47 33.34,291.5 168.5,528.01 393.51,713.52 174.85,144.16 377.19,225.8 601.48,253.96 43.89,5.5 88.16,8.88 132.39,9.37 44.81,0.5 89.65,-1.87 134.16,-7.11 39.98,-4.71 79.79,-9.96 119.33,-18.02 42.44,-8.65 84.39,-19.74 125.54,-33.3 2.69,-0.88 5.37,-1.78 8.05,-2.69 291.18,-98.46 515.54,-280.14 671.86,-544.84 84.48,-143.05 135.31,-297.75 153.41,-463.01 3.26,-29.73 5.85,-59.53 8.74,-89.3 0,-18.12 0,-36.24 0,-54.36"
         style="fill:#62a5df;fill-opacity:1;fill-rule:nonzero;stroke:none"
         id="path64" />
      <path
         d="m 3388.21,1899.9 c 53.35,-17.01 106.21,-35.81 160.16,-50.66 139.41,-38.39 281.51,-52.68 426.01,-43.7 183.09,11.39 356.4,57.96 516.1,148.57 275.26,156.17 457.28,387.45 542.32,692.42 64.75,232.2 55.32,462.42 -35.22,686.91 -81.44,201.92 -216.82,358.01 -406.89,465.6 -109.93,62.23 -225.67,108.64 -350.98,129.1 -117.44,19.19 -233.59,12.2 -348.87,-16.09 -103.25,-25.33 -200.66,-66.45 -297.61,-108.91 -6.07,-2.66 -12.17,-5.25 -19.92,-5.7 15.56,12.4 30.73,25.35 46.76,37.11 180.82,132.72 384.19,191.06 607.16,179.08 202.83,-10.92 384.79,-81.51 546.05,-204.24 220.04,-167.46 353.07,-390.09 403.37,-660.28 54.41,-292.2 2.74,-568.29 -151.37,-821.87 -189.17,-311.27 -466.69,-499.76 -824.07,-567.79 -233.2,-44.39 -460.37,-18.18 -679.26,74.03 -45.88,19.33 -89.84,43.23 -134.69,65.02 0.32,0.47 0.63,0.93 0.95,1.4"
         style="fill:#62a5df;fill-opacity:1;fill-rule:nonzero;stroke:none"
         id="path66" />
      <path
         d="m 3902.64,3362.69 c -17.14,4.29 -33.94,3.25 -49.93,-3.06 -16.24,-6.42 -29.12,-17.34 -38.56,-32.96 l -220.77,-383.73 -220.8,383.78 c -4.43,7.67 -10.02,14.38 -16.61,19.95 -6.49,5.47 -13.79,9.79 -21.73,12.85 -7.62,2.92 -15.62,4.7 -23.82,5.29 -8.25,0.6 -16.6,-0.1 -25.73,-2.29 -17.12,-4.78 -31.17,-14.3 -41.75,-28.29 -10.59,-13.96 -15.95,-30.1 -15.95,-47.94 v -567.15 h 156.75 v 280.34 l 142.55,-249.67 c 6.97,-12.73 16.76,-22.58 29.1,-29.27 11.75,-6.37 24.53,-9.6 37.99,-9.6 13.61,0 26.56,3.18 38.5,9.44 12.75,6.68 22.79,16.58 29.64,29.08 l 141.9,249.66 v -279.98 h 157.59 v 567.15 c 0,17.92 -5.48,34.11 -16.29,48.12 -10.7,13.86 -24.58,23.3 -42.08,28.28"
         style="fill:#41b93c;fill-opacity:1;fill-rule:nonzero;stroke:none"
         id="path68" />
      <path
         d="M 4599.81,3356.88 V 3116.8 h -323.82 v 240.08 h -156.76 v -637.74 h 156.76 v 240.08 h 323.82 v -240.08 h 156.76 v 637.74 h -156.76"
         style="fill:#41b93c;fill-opacity:1;fill-rule:nonzero;stroke:none"
         id="path70" />
    </g>
  </g>
</svg>
