<?xml version="1.0" encoding="UTF-8" standalone="no"?>
<svg
   xmlns:dc="http://purl.org/dc/elements/1.1/"
   xmlns:cc="http://creativecommons.org/ns#"
   xmlns:rdf="http://www.w3.org/1999/02/22-rdf-syntax-ns#"
   xmlns:svg="http://www.w3.org/2000/svg"
   xmlns="http://www.w3.org/2000/svg"
   viewBox="0 0 1064.1067 553.22668"
   height="553.22668"
   width="1064.1067"
   xml:space="preserve"
   id="svg2"
   version="1.1"><metadata
     id="metadata8"><rdf:RDF><cc:Work
         rdf:about=""><dc:format>image/svg+xml</dc:format><dc:type
           rdf:resource="http://purl.org/dc/dcmitype/StillImage" /></cc:Work></rdf:RDF></metadata><defs
     id="defs6" /><g
     transform="matrix(1.3333333,0,0,-1.3333333,0,553.22667)"
     id="g10"><g
       transform="scale(0.1)"
       id="g12"><path
         id="path14"
         style="fill:#62a5df;fill-opacity:1;fill-rule:nonzero;stroke:none"
         d="m 721.609,1227.46 c 0.012,-0.06 0.039,-0.11 0.039,-0.16 V 388.762 c 0,-1.641 -1.32,-2.961 -2.949,-2.961 H 562.281 c -1.629,0 -2.945,1.32 -2.945,2.961 V 830.789 L 441.777,544.051 c -0.05,-0.102 -0.144,-0.141 -0.207,-0.242 -0.043,-0.098 -0.031,-0.2 -0.093,-0.289 -0.129,-0.2 -0.336,-0.29 -0.493,-0.45 -0.164,-0.14 -0.269,-0.3 -0.461,-0.41 -0.425,-0.25 -0.894,-0.41 -1.402,-0.422 -0.023,0 -0.047,-0.027 -0.086,-0.027 h -156.43 c -0.027,0 -0.05,0.027 -0.089,0.027 -0.504,0.012 -0.973,0.172 -1.399,0.422 -0.179,0.11 -0.297,0.27 -0.441,0.41 -0.168,0.16 -0.375,0.25 -0.5,0.45 -0.055,0.089 -0.055,0.191 -0.106,0.289 -0.062,0.101 -0.156,0.14 -0.191,0.242 L 162.316,830.789 V 388.762 c 0,-1.641 -1.324,-2.961 -2.953,-2.961 H 2.94141 C 1.32422,385.801 0,387.121 0,388.762 v 838.528 c 0,0.05 0.0195313,0.11 0.03125,0.17 0,0.15 0.0507813,0.27 0.085938,0.42 0.0625,0.31 0.15625,0.58 0.3125,0.86 0.039062,0.06 0.027343,0.13 0.074218,0.2 0.039063,0.07 0.109375,0.1 0.15625,0.16 0.195313,0.25 0.437504,0.44 0.699224,0.62 0.10937,0.08 0.19531,0.15 0.30078,0.2 0.39843,0.2 0.82422,0.33 1.28125,0.33 H 159.363 c 0.543,0 1.028,-0.19 1.461,-0.44 0.11,-0.06 0.196,-0.12 0.289,-0.2 0.422,-0.31 0.762,-0.7 0.969,-1.18 0,-0.02 0.012,-0.02 0.012,-0.02 L 360.816,743.691 559.543,1228.41 c 0,0.02 0,0.02 0,0.02 0.203,0.48 0.555,0.87 0.961,1.18 0.098,0.08 0.191,0.14 0.305,0.2 0.429,0.26 0.918,0.44 1.461,0.44 h 156.418 c 0.468,0 0.894,-0.11 1.281,-0.31 0.105,-0.07 0.207,-0.14 0.297,-0.22 0.269,-0.17 0.511,-0.37 0.699,-0.62 0.051,-0.06 0.125,-0.09 0.176,-0.15 0.031,-0.06 0.031,-0.15 0.07,-0.21 0.141,-0.27 0.242,-0.55 0.312,-0.86 0.024,-0.14 0.075,-0.27 0.086,-0.42" /><path
         id="path16"
         style="fill:#62a5df;fill-opacity:1;fill-rule:nonzero;stroke:none"
         d="m 1197.08,704.539 h 186.06 l -93.03,278.941 z m 453.7,-314.848 c 0.29,-0.902 0.15,-1.89 -0.41,-2.671 -0.56,-0.758 -1.45,-1.219 -2.39,-1.219 h -156.42 c -1.27,0 -2.39,0.82 -2.8,2.019 l -51.49,154.399 H 1142.94 L 1091.45,387.82 c -0.4,-1.199 -1.51,-2.019 -2.79,-2.019 H 932.242 c -0.945,0 -1.847,0.461 -2.394,1.219 -0.555,0.781 -0.707,1.769 -0.399,2.671 l 279.661,838.549 c 0.03,0.1 0.13,0.14 0.18,0.23 0.07,0.19 0.1,0.39 0.22,0.55 0.13,0.18 0.32,0.28 0.48,0.43 0.12,0.1 0.21,0.21 0.36,0.3 0.46,0.3 0.99,0.5 1.55,0.5 h 156.41 c 0.57,0 1.09,-0.2 1.57,-0.5 0.13,-0.09 0.23,-0.2 0.36,-0.3 0.15,-0.15 0.35,-0.25 0.48,-0.43 0.11,-0.16 0.13,-0.36 0.22,-0.55 0.03,-0.08 0.14,-0.13 0.18,-0.23 l 279.66,-838.549" /><path
         id="path18"
         style="fill:#62a5df;fill-opacity:1;fill-rule:nonzero;stroke:none"
         d="m 2576.46,738.078 c -0.09,-0.449 -0.17,-0.918 -0.26,-1.367 h 0.26 z m 5.89,152.102 V 388.77 c 0,-1.641 -1.33,-2.961 -2.96,-2.961 h -156.41 c -1.63,0 -2.94,1.32 -2.94,2.961 v 86.601 c -62.57,-49.082 -137.02,-79.23 -216.29,-87.301 -0.19,-0.019 -0.37,-0.058 -0.56,-0.07 -6.11,-0.621 -12.26,-1.051 -18.41,-1.418 -1.05,-0.062 -2.09,-0.172 -3.14,-0.23 -7.14,-0.352 -14.31,-0.543 -21.51,-0.543 -7.2,0 -14.37,0.191 -21.5,0.543 -1.07,0.058 -2.11,0.168 -3.15,0.23 -6.16,0.367 -12.3,0.797 -18.4,1.418 -0.2,0.02 -0.39,0.059 -0.6,0.07 -96.28,9.828 -185.53,52.039 -254.9,121.399 -69.37,69.383 -111.59,158.64 -121.42,254.941 -0.02,0.18 -0.06,0.371 -0.07,0.57 -0.61,6.129 -1.06,12.309 -1.41,18.5 -0.06,1.02 -0.17,2.032 -0.23,3.04 -0.35,7.14 -0.54,14.308 -0.54,21.519 0,7.191 0.19,14.371 0.54,21.5 0.06,1.02 0.17,2.043 0.23,3.051 0.35,6.191 0.8,12.359 1.41,18.5 0.01,0.191 0.05,0.39 0.07,0.57 9.83,96.289 52.05,185.56 121.42,254.92 69.37,69.37 158.62,111.59 254.9,121.42 0.21,0.01 0.4,0.05 0.6,0.06 6.1,0.63 12.24,1.05 18.4,1.4 1.04,0.06 2.08,0.19 3.15,0.25 7.13,0.35 14.3,0.54 21.5,0.54 112.78,0 218.81,-43.92 298.56,-123.67 0.55,-0.55 0.87,-1.29 0.87,-2.08 0,-0.79 -0.32,-1.54 -0.87,-2.09 l -110.6,-110.601 c -1.16,-1.149 -3.03,-1.149 -4.18,0 -49.08,49.081 -114.35,76.121 -183.78,76.121 -4.44,0 -8.85,-0.11 -13.25,-0.32 -0.62,-0.04 -1.22,-0.12 -1.83,-0.15 -3.83,-0.22 -7.65,-0.48 -11.42,-0.87 -0.13,-0.01 -0.25,-0.03 -0.39,-0.03 -121.88,-12.6 -219.04,-109.759 -231.62,-231.638 -0.01,-0.121 -0.04,-0.25 -0.05,-0.383 -0.39,-3.789 -0.65,-7.598 -0.87,-11.418 -0.04,-0.609 -0.11,-1.23 -0.13,-1.84 -0.22,-4.39 -0.34,-8.812 -0.34,-13.242 0,-4.457 0.12,-8.859 0.34,-13.258 0.02,-0.609 0.09,-1.222 0.13,-1.832 0.23,-3.82 0.49,-7.64 0.88,-11.41 0.01,-0.129 0.03,-0.269 0.04,-0.379 12.58,-121.89 109.74,-219.051 231.62,-231.648 0.14,-0.012 0.27,-0.02 0.4,-0.032 3.78,-0.378 7.58,-0.648 11.41,-0.878 0.63,-0.032 1.23,-0.114 1.84,-0.133 4.39,-0.227 8.8,-0.34 13.24,-0.34 4.45,0 8.86,0.113 13.26,0.34 0.61,0.019 1.23,0.101 1.83,0.133 3.83,0.218 7.64,0.488 11.42,0.878 0.13,0.012 0.26,0.02 0.4,0.032 104.54,10.797 190.91,83.816 221.3,181.297 h -186.81 c -1.62,0 -2.94,1.339 -2.94,2.961 v 156.41 c 0,1.64 1.32,2.961 2.94,2.961 h 201.45 c 0.01,0 156.43,0 156.43,0 1.63,0 2.95,-1.321 2.94,-2.961" /><path
         id="path20"
         style="fill:#62a5df;fill-opacity:1;fill-rule:nonzero;stroke:none"
         d="M 2952.63,1227.3 V 388.762 c 0,-1.641 -1.33,-2.953 -2.96,-2.953 h -156.42 c -1.62,0 -2.94,1.312 -2.94,2.953 V 1227.3 c 0,1.62 1.32,2.95 2.94,2.95 h 156.42 c 1.63,0 2.96,-1.33 2.96,-2.95" /><path
         id="path22"
         style="fill:#62a5df;fill-opacity:1;fill-rule:nonzero;stroke:none"
         d="m 3367.69,991.82 c -101.33,-101.351 -101.33,-266.23 0,-367.57 49.09,-49.078 114.36,-76.121 183.78,-76.121 69.43,0 134.69,27.043 183.79,76.121 1.14,1.148 3.01,1.148 4.16,0 l 110.61,-110.609 c 0.56,-0.539 0.87,-1.289 0.87,-2.082 0,-0.789 -0.31,-1.539 -0.87,-2.09 -79.75,-79.75 -185.78,-123.66 -298.56,-123.66 -112.78,0 -218.81,43.91 -298.55,123.66 -164.62,164.633 -164.62,432.492 0,597.111 79.74,79.75 185.77,123.67 298.55,123.67 112.78,0 218.81,-43.92 298.56,-123.67 0.56,-0.55 0.87,-1.29 0.87,-2.08 0,-0.79 -0.31,-1.54 -0.87,-2.09 L 3739.42,991.809 c -1.15,-1.149 -3.02,-1.149 -4.16,0 -49.1,49.081 -114.36,76.121 -183.79,76.121 -69.42,0 -134.69,-27.03 -183.78,-76.11" /><path
         id="path24"
         style="fill:#62a5df;fill-opacity:1;fill-rule:nonzero;stroke:none"
         d="M 5204.01,1227.3 V 388.762 c 0,-1.641 -1.33,-2.953 -2.96,-2.953 h -156.41 c -1.62,0 -2.96,1.312 -2.96,2.953 v 338.097 h -397 V 388.762 c 0,-1.641 -1.32,-2.953 -2.95,-2.953 H 4485.3 c -1.61,0 -2.93,1.312 -2.93,2.953 V 1227.3 c 0,1.62 1.32,2.95 2.93,2.95 h 156.43 c 1.63,0 2.95,-1.33 2.95,-2.95 V 889.191 h 397 V 1227.3 c 0,1.62 1.34,2.95 2.96,2.95 h 156.41 c 1.63,0 2.96,-1.33 2.96,-2.95" /><path
         id="path26"
         style="fill:#62a5df;fill-opacity:1;fill-rule:nonzero;stroke:none"
         d="m 5679.44,704.539 h 186.07 l -93.03,278.941 z m 453.71,-314.848 c 0.29,-0.902 0.15,-1.89 -0.41,-2.671 -0.55,-0.758 -1.45,-1.219 -2.39,-1.219 h -156.42 c -1.26,0 -2.39,0.82 -2.8,2.019 l -51.49,154.399 H 5625.31 L 5573.82,387.82 c -0.4,-1.199 -1.51,-2.019 -2.8,-2.019 h -156.41 c -0.95,0 -1.85,0.461 -2.4,1.219 -0.55,0.781 -0.7,1.769 -0.4,2.671 l 279.67,838.549 c 0.04,0.1 0.14,0.14 0.17,0.23 0.08,0.19 0.1,0.39 0.23,0.55 0.12,0.18 0.32,0.28 0.49,0.43 0.11,0.1 0.21,0.21 0.36,0.3 0.45,0.3 0.98,0.5 1.53,0.5 h 156.43 c 0.56,0 1.08,-0.2 1.56,-0.5 0.12,-0.09 0.22,-0.2 0.36,-0.3 0.15,-0.15 0.35,-0.25 0.48,-0.43 0.11,-0.16 0.13,-0.36 0.22,-0.55 0.04,-0.08 0.14,-0.13 0.17,-0.23 l 279.67,-838.549" /><path
         id="path28"
         style="fill:#62a5df;fill-opacity:1;fill-rule:nonzero;stroke:none"
         d="M 7062.6,1227.3 V 388.77 c 0,-0.469 -0.13,-0.911 -0.33,-1.301 -0.01,-0.039 -0.01,-0.071 -0.02,-0.098 -0.04,-0.062 -0.11,-0.101 -0.15,-0.172 -0.22,-0.32 -0.46,-0.578 -0.76,-0.801 -0.12,-0.089 -0.2,-0.148 -0.32,-0.207 -0.41,-0.23 -0.87,-0.382 -1.37,-0.382 h -156.41 c -0.46,0 -0.9,0.132 -1.29,0.312 -0.11,0.07 -0.2,0.149 -0.31,0.219 -0.26,0.172 -0.49,0.371 -0.69,0.629 -0.05,0.051 -0.13,0.082 -0.17,0.152 l -397.5,595.938 V 388.762 c 0,-1.641 -1.34,-2.961 -2.96,-2.961 H 6343.9 c -1.63,0 -2.95,1.32 -2.95,2.961 v 838.528 c 0,0.47 0.14,0.9 0.32,1.3 0.02,0.03 0,0.07 0.03,0.1 0.04,0.06 0.12,0.1 0.16,0.17 0.2,0.31 0.45,0.59 0.78,0.8 0.08,0.09 0.18,0.16 0.31,0.21 0.41,0.23 0.85,0.38 1.35,0.38 h 156.42 c 0.48,0 0.89,-0.13 1.27,-0.33 0.13,-0.05 0.22,-0.12 0.32,-0.2 0.27,-0.18 0.5,-0.38 0.7,-0.62 0.05,-0.06 0.12,-0.1 0.17,-0.16 l 397.5,-595.952 V 1227.3 c 0,1.62 1.31,2.95 2.95,2.95 h 156.42 c 1.62,0 2.93,-1.33 2.95,-2.95" /><path
         id="path30"
         style="fill:#62a5df;fill-opacity:1;fill-rule:nonzero;stroke:none"
         d="m 7432.57,548.121 h 126.01 c 143.31,0 259.9,116.59 259.9,259.91 0,143.301 -116.59,259.899 -259.9,259.899 h -126.01 z m 548.23,259.91 c 0,-232.812 -189.4,-422.222 -422.22,-422.222 h -285.39 c -1.62,0 -2.94,1.312 -2.94,2.953 V 1227.3 c 0,1.62 1.32,2.95 2.94,2.95 h 285.39 c 232.82,0 422.22,-189.41 422.22,-422.219" /><path
         id="path32"
         style="fill:#41b93c;fill-opacity:1;fill-rule:nonzero;stroke:none"
         d="M 1799.15,90.3398 H 0 V 154.832 H 1799.15 V 90.3398" /><path
         id="path34"
         style="fill:#41b93c;fill-opacity:1;fill-rule:nonzero;stroke:none"
         d="M 7980.8,90.3398 H 6181.65 V 154.832 H 7980.8 V 90.3398" /><path
         id="path36"
         style="fill:#41b93c;fill-opacity:1;fill-rule:nonzero;stroke:none"
         d="m 2721.28,3039.5 c 2.93,31.24 5.27,62.55 8.87,93.71 27.55,238.65 116,451.82 268.3,637.94 89.37,109.23 195.61,198.84 317.67,269.68 2.36,1.37 4.79,2.64 7.9,2.93 -23.68,-20.18 -47.95,-39.72 -70.97,-60.64 -223.62,-203.26 -370.24,-450.8 -418.6,-750.6 -54.19,-335.93 27.18,-639.03 240.67,-904.06 152.73,-189.61 348.11,-317.09 585.5,-374.6 263.51,-63.84 511.54,-24.27 741.37,122 95.98,61.08 182.7,132.63 254.55,221.38 87.78,108.43 144.8,231.91 172.97,367.8 18.44,88.95 30.32,179.26 44.68,266.22 1.58,-9.36 4.29,-22.39 5.93,-35.55 33.18,-265.69 -35.34,-503.62 -202.82,-710.84 -169.82,-210.11 -393.07,-331.45 -659.89,-365.87 -337.3,-43.52 -633.95,55.61 -888.38,277.89 -217.09,189.67 -344.72,431.04 -391.8,714.96 -7,42.2 -8.9,85.25 -13.25,127.9 -0.67,6.57 -1.79,13.1 -2.7,19.65 0,26.7 0,53.4 0,80.1" /><path
         id="path38"
         style="fill:#62a5df;fill-opacity:1;fill-rule:nonzero;stroke:none"
         d="m 5256.76,2936.51 c -4.54,23.24 -9.15,46.46 -13.59,69.72 -43.89,229.94 -138.68,436.14 -290.93,614.38 -175.26,205.17 -393.99,340.16 -660.27,389.86 -337.11,62.93 -644.26,-10.12 -915.04,-221.53 -158.5,-123.76 -268.56,-283.59 -328.01,-476.69 -34.63,-112.5 -44.16,-227.75 -36.64,-344.95 6.57,-102.42 24.72,-202.23 60.79,-298.56 42.95,-114.76 109.38,-214.26 194.54,-301.8 72.45,-74.47 154.76,-137.02 238.28,-198.15 4.84,-3.54 9.6,-7.19 14.39,-10.8 -0.55,-1.04 -1.1,-2.09 -1.65,-3.14 -25.33,10.53 -51.17,19.99 -75.91,31.76 -219.9,104.58 -374.71,271.19 -468,495.21 -65.53,157.37 -85.75,321.64 -66.44,490.47 33.34,291.5 168.5,528.01 393.51,713.52 174.85,144.16 377.19,225.8 601.48,253.96 43.89,5.5 88.16,8.88 132.39,9.37 44.81,0.5 89.66,-1.87 134.16,-7.11 39.98,-4.71 79.79,-9.96 119.33,-18.02 42.44,-8.65 84.39,-19.74 125.54,-33.3 2.69,-0.88 5.37,-1.78 8.05,-2.69 291.18,-98.46 515.55,-280.14 671.86,-544.84 84.48,-143.05 135.31,-297.75 153.41,-463.01 3.26,-29.73 5.85,-59.53 8.75,-89.3 0,-18.12 0,-36.24 0,-54.36" /><path
         id="path40"
         style="fill:#62a5df;fill-opacity:1;fill-rule:nonzero;stroke:none"
         d="m 3385.45,1788.15 c 53.35,-17.01 106.21,-35.81 160.16,-50.66 139.42,-38.39 281.51,-52.68 426.01,-43.7 183.09,11.39 356.41,57.96 516.1,148.57 275.27,156.17 457.28,387.45 542.32,692.42 64.75,232.2 55.32,462.42 -35.22,686.91 -81.43,201.92 -216.81,358.01 -406.89,465.6 -109.93,62.23 -225.67,108.64 -350.98,129.1 -117.44,19.19 -233.58,12.2 -348.87,-16.09 -103.25,-25.33 -200.66,-66.45 -297.61,-108.91 -6.07,-2.66 -12.17,-5.25 -19.92,-5.7 15.56,12.4 30.73,25.35 46.76,37.11 180.82,132.72 384.19,191.06 607.16,179.08 202.83,-10.92 384.79,-81.51 546.05,-204.24 220.04,-167.46 353.07,-390.09 403.37,-660.28 54.41,-292.2 2.74,-568.29 -151.37,-821.87 -189.17,-311.27 -466.69,-499.76 -824.07,-567.79 -233.2,-44.39 -460.37,-18.18 -679.26,74.03 -45.88,19.33 -89.84,43.23 -134.69,65.02 0.32,0.47 0.63,0.93 0.95,1.4" /><path
         id="path42"
         style="fill:#41b93c;fill-opacity:1;fill-rule:nonzero;stroke:none"
         d="m 3899.89,3250.94 c -17.15,4.29 -33.94,3.25 -49.94,-3.06 -16.24,-6.42 -29.12,-17.34 -38.56,-32.96 l -220.77,-383.73 -220.8,383.78 c -4.43,7.67 -10.01,14.38 -16.61,19.95 -6.49,5.47 -13.79,9.79 -21.73,12.85 -7.62,2.92 -15.62,4.7 -23.82,5.29 -8.25,0.6 -16.6,-0.1 -25.73,-2.29 -17.12,-4.78 -31.17,-14.3 -41.75,-28.29 -10.59,-13.96 -15.95,-30.1 -15.95,-47.94 v -567.15 h 156.75 v 280.34 l 142.55,-249.67 c 6.97,-12.73 16.76,-22.58 29.1,-29.27 11.75,-6.37 24.53,-9.6 37.99,-9.6 13.61,0 26.57,3.18 38.5,9.44 12.75,6.68 22.79,16.58 29.64,29.08 l 141.91,249.66 v -279.98 h 157.58 v 567.15 c 0,17.92 -5.48,34.11 -16.29,48.12 -10.7,13.86 -24.58,23.3 -42.07,28.28" /><path
         id="path44"
         style="fill:#41b93c;fill-opacity:1;fill-rule:nonzero;stroke:none"
         d="m 4597.05,3245.13 v -240.08 h -323.82 v 240.08 h -156.76 v -637.74 h 156.76 v 240.08 h 323.82 v -240.08 h 156.76 v 637.74 h -156.76" /><path
         id="path46"
         style="fill:#41b93c;fill-opacity:1;fill-rule:nonzero;stroke:none"
         d="M 2075.31,36.3516 C 2068.33,25.3789 2058.39,16.582 2045.47,9.94922 2032.55,3.30859 2017.53,0 2000.38,0 c -26.29,0 -47.44,6.12109 -63.44,18.3516 -16,12.2304 -24,29.4297 -24,51.6093 h 51.44 c 0.91,-10.289 4.39,-18.1289 10.46,-23.4921 6.05,-5.379 14.57,-8.0586 25.54,-8.0586 10.97,0 19.66,2.8515 26.06,8.582 6.4,5.6992 9.6,13.1289 9.6,22.2773 0,7.3125 -2.23,13.2618 -6.69,17.8399 -4.45,4.5625 -9.94,8.1094 -16.45,10.6211 -6.52,2.5075 -15.72,5.3715 -27.61,8.5705 -15.32,3.89 -27.77,7.89 -37.37,12.008 -9.61,4.113 -17.84,10.57 -24.69,19.363 -6.86,8.808 -10.29,20.758 -10.29,35.84 0,14.41 3.6,27.027 10.8,37.886 7.2,10.852 17.2,19.211 30.01,25.043 12.8,5.829 27.31,8.739 43.54,8.739 24.92,0 44.92,-5.649 60.01,-16.981 15.09,-11.308 23.32,-28.508 24.69,-51.597 h -52.81 c -0.91,9.14 -4.34,16.398 -10.28,21.777 -5.95,5.359 -13.61,8.051 -22.98,8.051 -9.83,0 -17.77,-2.461 -23.83,-7.371 -6.06,-4.918 -9.09,-12.411 -9.09,-22.457 0,-7.543 2.23,-13.661 6.69,-18.352 4.46,-4.691 10,-8.281 16.63,-10.801 6.63,-2.508 15.77,-5.258 27.43,-8.23 15.32,-3.879 27.78,-7.887 37.38,-12 9.6,-4.11 17.77,-10.578 24.52,-19.367 6.74,-8.8129 10.11,-20.7426 10.11,-35.8403 0,-12.8008 -3.48,-24.6914 -10.45,-35.6601" /><path
         id="path48"
         style="fill:#41b93c;fill-opacity:1;fill-rule:nonzero;stroke:none"
         d="m 2310.54,225.289 c 20.23,-13.258 34.68,-31.891 43.38,-55.891 h -57.96 c -10.74,21.024 -29.03,31.543 -54.86,31.543 -14.41,0 -27.15,-3.203 -38.24,-9.601 -11.09,-6.399 -19.72,-15.551 -25.89,-27.43 -6.17,-11.89 -9.25,-25.609 -9.25,-41.148 0,-15.551 3.08,-29.262 9.25,-41.1526 6.17,-11.8906 14.8,-21.0899 25.89,-27.5977 11.09,-6.5195 23.83,-9.7734 38.24,-9.7734 25.59,0 43.89,10.5117 54.86,31.543 h 57.96 c -8.7,-23.9922 -23.15,-42.5821 -43.38,-55.7227 -20.23,-13.14844 -43.38,-19.707037 -69.44,-19.707037 -22.41,0 -42.99,5.199217 -61.73,15.597637 -18.75,10.4024 -33.55,24.9219 -44.4,43.5508 -10.86,18.6211 -16.29,39.7109 -16.29,63.262 0,23.32 5.43,44.289 16.29,62.918 10.85,18.64 25.65,33.211 44.4,43.718 18.74,10.524 39.32,15.782 61.73,15.782 26.06,0 49.21,-6.641 69.44,-19.891" /><path
         id="path50"
         style="fill:#41b93c;fill-opacity:1;fill-rule:nonzero;stroke:none"
         d="M 2595.31,241.75 V 2.39844 h -48.34 V 104.93 H 2444.1 V 2.39844 h -48.35 V 241.75 h 48.35 v -99.781 h 102.87 v 99.781 h 48.34" /><path
         id="path52"
         style="fill:#41b93c;fill-opacity:1;fill-rule:nonzero;stroke:none"
         d="m 2717.56,191.34 c -11.09,-6.399 -19.72,-15.551 -25.89,-27.43 -6.17,-11.89 -9.26,-25.609 -9.26,-41.148 0,-15.551 3.09,-29.262 9.26,-41.1526 6.17,-11.8906 14.8,-21.0899 25.89,-27.5977 11.09,-6.5195 23.83,-9.7734 38.23,-9.7734 14.41,0 27.09,3.2539 38.06,9.7734 10.98,6.5078 19.55,15.6602 25.72,27.4297 6.17,11.7695 9.26,25.5506 9.26,41.3206 0,15.777 -3.09,29.547 -9.26,41.328 -6.17,11.769 -14.74,20.851 -25.72,27.25 -10.97,6.398 -23.65,9.601 -38.06,9.601 -14.4,0 -27.14,-3.203 -38.23,-9.601 z m 100.13,38.058 c 18.63,-10.507 33.37,-25.078 44.23,-43.718 10.86,-18.629 16.29,-39.598 16.29,-62.918 0,-23.5511 -5.43,-44.6409 -16.29,-63.262 -10.86,-18.6289 -25.66,-33.2109 -44.4,-43.7305 C 2798.77,5.26172 2778.2,0 2755.79,0 c -22.4,0 -42.98,5.26172 -61.72,15.7695 -18.75,10.5196 -33.55,25.1016 -44.4,43.7305 -10.86,18.6211 -16.29,39.7109 -16.29,63.262 0,23.32 5.43,44.289 16.29,62.918 10.85,18.64 25.65,33.211 44.4,43.718 18.74,10.524 39.32,15.782 61.72,15.782 22.64,0 43.26,-5.258 61.9,-15.782" /><path
         id="path54"
         style="fill:#41b93c;fill-opacity:1;fill-rule:nonzero;stroke:none"
         d="m 2987.08,191.34 c -11.09,-6.399 -19.72,-15.551 -25.89,-27.43 -6.17,-11.89 -9.25,-25.609 -9.25,-41.148 0,-15.551 3.08,-29.262 9.25,-41.1526 6.17,-11.8906 14.8,-21.0899 25.89,-27.5977 11.09,-6.5195 23.83,-9.7734 38.24,-9.7734 14.4,0 27.09,3.2539 38.06,9.7734 10.97,6.5078 19.54,15.6602 25.72,27.4297 6.17,11.7695 9.25,25.5506 9.25,41.3206 0,15.777 -3.08,29.547 -9.25,41.328 -6.18,11.769 -14.75,20.851 -25.72,27.25 -10.97,6.398 -23.66,9.601 -38.06,9.601 -14.41,0 -27.15,-3.203 -38.24,-9.601 z m 100.13,38.058 c 18.63,-10.507 33.37,-25.078 44.23,-43.718 10.86,-18.629 16.29,-39.598 16.29,-62.918 0,-23.5511 -5.43,-44.6409 -16.29,-63.262 -10.86,-18.6289 -25.66,-33.2109 -44.4,-43.7305 C 3068.29,5.26172 3047.72,0 3025.32,0 c -22.41,0 -42.99,5.26172 -61.73,15.7695 -18.75,10.5196 -33.55,25.1016 -44.4,43.7305 -10.86,18.6211 -16.29,39.7109 -16.29,63.262 0,23.32 5.43,44.289 16.29,62.918 10.85,18.64 25.65,33.211 44.4,43.718 18.74,10.524 39.32,15.782 61.73,15.782 22.63,0 43.25,-5.258 61.89,-15.782" /><path
         id="path56"
         style="fill:#41b93c;fill-opacity:1;fill-rule:nonzero;stroke:none"
         d="M 3390.84,2.39844 H 3342.5 L 3234.14,168.371 V 2.39844 h -48.35 V 242.441 h 48.35 L 3342.5,76.4688 V 242.441 h 48.34 V 2.39844" /><path
         id="path58"
         style="fill:#41b93c;fill-opacity:1;fill-rule:nonzero;stroke:none"
         d="M 3703.23,241.75 V 2.39844 h -48.01 V 153.629 L 3590.07,2.39844 h -34.63 L 3490.63,152.93 V 2.39844 h -48.35 V 241.75 h 53.83 l 76.81,-177.2812 76.81,177.2812 h 53.5" /><path
         id="path60"
         style="fill:#41b93c;fill-opacity:1;fill-rule:nonzero;stroke:none"
         d="m 3883.93,84.3516 -34.29,99.7964 -33.94,-99.7964 z m 12.35,-37.0313 h -93.27 L 3787.58,2.39844 h -51.09 l 84.69,240.04256 h 57.27 L 3962.8,2.39844 h -51.09 l -15.43,44.92186" /><path
         id="path62"
         style="fill:#41b93c;fill-opacity:1;fill-rule:nonzero;stroke:none"
         d="m 4125.68,84.3516 -34.29,99.7964 -33.95,-99.7964 z m 12.34,-37.0313 h -93.27 L 4029.32,2.39844 h -51.09 l 84.7,240.04256 h 57.26 L 4204.54,2.39844 h -51.09 l -15.43,44.92186" /><path
         id="path64"
         style="fill:#41b93c;fill-opacity:1;fill-rule:nonzero;stroke:none"
         d="M 4332.1,121.73 4436,2.39844 h -62.75 L 4286.49,108.711 V 2.39844 h -48.34 V 241.75 h 48.34 V 134.77 l 86.41,106.98 H 4436 L 4332.1,121.73" /><path
         id="path66"
         style="fill:#41b93c;fill-opacity:1;fill-rule:nonzero;stroke:none"
         d="m 4609.16,61.3906 c 13.94,14.8477 20.92,34.9688 20.92,60.3394 0,25.379 -6.98,45.489 -20.92,60.36 -13.95,14.859 -33.49,22.281 -58.63,22.281 H 4517.6 V 39.1016 h 32.93 c 25.14,0 44.68,7.4179 58.63,22.289 z M 4663,58.8086 C 4652.25,40.8711 4637.17,26.9688 4617.73,17.1484 4598.3,7.32031 4575.9,2.39844 4550.53,2.39844 h -81.27 V 241.75 h 81.27 c 25.37,0 47.77,-4.969 67.2,-14.91 19.44,-9.949 34.52,-23.949 45.27,-42.008 10.74,-18.07 16.12,-39.09 16.12,-63.102 0,-23.9995 -5.38,-44.9683 -16.12,-62.9214" /><path
         id="path68"
         style="fill:#41b93c;fill-opacity:1;fill-rule:nonzero;stroke:none"
         d="M 4765.52,241.75 V 2.39844 h -48.34 V 241.75 h 48.34" /><path
         id="path70"
         style="fill:#41b93c;fill-opacity:1;fill-rule:nonzero;stroke:none"
         d="m 4865.31,205.398 v -62.75 h 79.55 v -37.027 h -79.55 V 39.4414 h 89.84 V 2.39844 H 4816.96 V 242.441 h 138.19 v -37.043 h -89.84" /><path
         id="path72"
         style="fill:#41b93c;fill-opacity:1;fill-rule:nonzero;stroke:none"
         d="m 5209.58,2.39844 h -48.35 L 5052.87,168.371 V 2.39844 h -48.35 V 242.441 h 48.35 L 5161.23,76.4688 V 242.441 h 48.35 V 2.39844" /><path
         id="path74"
         style="fill:#41b93c;fill-opacity:1;fill-rule:nonzero;stroke:none"
         d="M 5418.23,36.3516 C 5411.25,25.3789 5401.31,16.582 5388.4,9.94922 5375.48,3.30859 5360.45,0 5343.31,0 c -26.29,0 -47.45,6.12109 -63.44,18.3516 -16,12.2304 -24,29.4297 -24,51.6093 h 51.44 c 0.9,-10.289 4.39,-18.1289 10.45,-23.4921 6.05,-5.379 14.57,-8.0586 25.55,-8.0586 10.97,0 19.66,2.8515 26.06,8.582 6.4,5.6992 9.6,13.1289 9.6,22.2773 0,7.3125 -2.23,13.2618 -6.68,17.8399 -4.47,4.5625 -9.95,8.1094 -16.46,10.6211 -6.52,2.5075 -15.73,5.3715 -27.61,8.5705 -15.32,3.89 -27.77,7.89 -37.38,12.008 -9.6,4.113 -17.82,10.57 -24.68,19.363 -6.86,8.808 -10.29,20.758 -10.29,35.84 0,14.41 3.6,27.027 10.79,37.886 7.21,10.852 17.21,19.211 30.01,25.043 12.8,5.829 27.32,8.739 43.55,8.739 24.92,0 44.92,-5.649 60.01,-16.981 15.08,-11.308 23.32,-28.508 24.69,-51.597 h -52.81 c -0.92,9.14 -4.34,16.398 -10.29,21.777 -5.95,5.359 -13.6,8.051 -22.97,8.051 -9.83,0 -17.78,-2.461 -23.83,-7.371 -6.07,-4.918 -9.09,-12.411 -9.09,-22.457 0,-7.543 2.23,-13.661 6.69,-18.352 4.45,-4.691 9.99,-8.281 16.63,-10.801 6.63,-2.508 15.77,-5.258 27.43,-8.23 15.32,-3.879 27.78,-7.887 37.38,-12 9.6,-4.11 17.77,-10.578 24.51,-19.367 6.75,-8.8129 10.12,-20.7426 10.12,-35.8403 0,-12.8008 -3.49,-24.6914 -10.46,-35.6601" /><path
         id="path76"
         style="fill:#41b93c;fill-opacity:1;fill-rule:nonzero;stroke:none"
         d="m 5638.2,241.75 v -37.031 h -64.81 V 2.39844 h -48.01 V 204.719 h -64.46 v 37.031 h 177.28" /><path
         id="path78"
         style="fill:#41b93c;fill-opacity:1;fill-rule:nonzero;stroke:none"
         d="m 5723.58,205.398 v -62.75 h 79.55 v -37.027 h -79.55 V 39.4414 h 89.85 V 2.39844 H 5675.24 V 242.441 h 138.19 v -37.043 h -89.85" /><path
         id="path80"
         style="fill:#41b93c;fill-opacity:1;fill-rule:nonzero;stroke:none"
         d="M 6067.86,2.39844 H 6019.5 L 5911.14,168.371 V 2.39844 H 5862.8 V 242.441 h 48.34 L 6019.5,76.4688 V 242.441 h 48.36 V 2.39844" /></g></g></svg>